%FSLAX42Y42*%
%MOMM*%
G71*
G01*
G75*
G04 Layer_Color=32896*
%ADD10R,5.00X2.20*%
%ADD11R,1.50X2.00*%
G04:AMPARAMS|DCode=12|XSize=1mm|YSize=0.9mm|CornerRadius=0.11mm|HoleSize=0mm|Usage=FLASHONLY|Rotation=0.000|XOffset=0mm|YOffset=0mm|HoleType=Round|Shape=RoundedRectangle|*
%AMROUNDEDRECTD12*
21,1,1.00,0.68,0,0,0.0*
21,1,0.78,0.90,0,0,0.0*
1,1,0.23,0.39,-0.34*
1,1,0.23,-0.39,-0.34*
1,1,0.23,-0.39,0.34*
1,1,0.23,0.39,0.34*
%
%ADD12ROUNDEDRECTD12*%
%ADD13R,1.30X2.40*%
%ADD14R,2.00X2.50*%
G04:AMPARAMS|DCode=15|XSize=1mm|YSize=0.9mm|CornerRadius=0.11mm|HoleSize=0mm|Usage=FLASHONLY|Rotation=90.000|XOffset=0mm|YOffset=0mm|HoleType=Round|Shape=RoundedRectangle|*
%AMROUNDEDRECTD15*
21,1,1.00,0.68,0,0,90.0*
21,1,0.78,0.90,0,0,90.0*
1,1,0.23,0.34,0.39*
1,1,0.23,0.34,-0.39*
1,1,0.23,-0.34,-0.39*
1,1,0.23,-0.34,0.39*
%
%ADD15ROUNDEDRECTD15*%
%ADD16O,0.64X2.03*%
%ADD17R,0.64X2.03*%
G04:AMPARAMS|DCode=18|XSize=0.6mm|YSize=1mm|CornerRadius=0.08mm|HoleSize=0mm|Usage=FLASHONLY|Rotation=180.000|XOffset=0mm|YOffset=0mm|HoleType=Round|Shape=RoundedRectangle|*
%AMROUNDEDRECTD18*
21,1,0.60,0.85,0,0,180.0*
21,1,0.45,1.00,0,0,180.0*
1,1,0.15,-0.23,0.42*
1,1,0.15,0.23,0.42*
1,1,0.15,0.23,-0.42*
1,1,0.15,-0.23,-0.42*
%
%ADD18ROUNDEDRECTD18*%
%ADD19R,2.00X1.50*%
G04:AMPARAMS|DCode=20|XSize=0.6mm|YSize=1mm|CornerRadius=0.08mm|HoleSize=0mm|Usage=FLASHONLY|Rotation=270.000|XOffset=0mm|YOffset=0mm|HoleType=Round|Shape=RoundedRectangle|*
%AMROUNDEDRECTD20*
21,1,0.60,0.85,0,0,270.0*
21,1,0.45,1.00,0,0,270.0*
1,1,0.15,-0.42,-0.23*
1,1,0.15,-0.42,0.23*
1,1,0.15,0.42,0.23*
1,1,0.15,0.42,-0.23*
%
%ADD20ROUNDEDRECTD20*%
%ADD21O,0.30X1.80*%
%ADD22O,1.80X0.30*%
G04:AMPARAMS|DCode=23|XSize=3.5mm|YSize=1.4mm|CornerRadius=0.17mm|HoleSize=0mm|Usage=FLASHONLY|Rotation=270.000|XOffset=0mm|YOffset=0mm|HoleType=Round|Shape=RoundedRectangle|*
%AMROUNDEDRECTD23*
21,1,3.50,1.05,0,0,270.0*
21,1,3.15,1.40,0,0,270.0*
1,1,0.35,-0.53,-1.57*
1,1,0.35,-0.53,1.57*
1,1,0.35,0.53,1.57*
1,1,0.35,0.53,-1.57*
%
%ADD23ROUNDEDRECTD23*%
G04:AMPARAMS|DCode=24|XSize=0.8mm|YSize=0.8mm|CornerRadius=0.1mm|HoleSize=0mm|Usage=FLASHONLY|Rotation=90.000|XOffset=0mm|YOffset=0mm|HoleType=Round|Shape=RoundedRectangle|*
%AMROUNDEDRECTD24*
21,1,0.80,0.60,0,0,90.0*
21,1,0.60,0.80,0,0,90.0*
1,1,0.20,0.30,0.30*
1,1,0.20,0.30,-0.30*
1,1,0.20,-0.30,-0.30*
1,1,0.20,-0.30,0.30*
%
%ADD24ROUNDEDRECTD24*%
G04:AMPARAMS|DCode=25|XSize=1.3mm|YSize=0.8mm|CornerRadius=0.1mm|HoleSize=0mm|Usage=FLASHONLY|Rotation=180.000|XOffset=0mm|YOffset=0mm|HoleType=Round|Shape=RoundedRectangle|*
%AMROUNDEDRECTD25*
21,1,1.30,0.60,0,0,180.0*
21,1,1.10,0.80,0,0,180.0*
1,1,0.20,-0.55,0.30*
1,1,0.20,0.55,0.30*
1,1,0.20,0.55,-0.30*
1,1,0.20,-0.55,-0.30*
%
%ADD25ROUNDEDRECTD25*%
G04:AMPARAMS|DCode=26|XSize=1.4mm|YSize=1mm|CornerRadius=0.13mm|HoleSize=0mm|Usage=FLASHONLY|Rotation=270.000|XOffset=0mm|YOffset=0mm|HoleType=Round|Shape=RoundedRectangle|*
%AMROUNDEDRECTD26*
21,1,1.40,0.75,0,0,270.0*
21,1,1.15,1.00,0,0,270.0*
1,1,0.25,-0.38,-0.57*
1,1,0.25,-0.38,0.57*
1,1,0.25,0.38,0.57*
1,1,0.25,0.38,-0.57*
%
%ADD26ROUNDEDRECTD26*%
%ADD27R,2.50X2.00*%
G04:AMPARAMS|DCode=28|XSize=3.5mm|YSize=1.4mm|CornerRadius=0.17mm|HoleSize=0mm|Usage=FLASHONLY|Rotation=180.000|XOffset=0mm|YOffset=0mm|HoleType=Round|Shape=RoundedRectangle|*
%AMROUNDEDRECTD28*
21,1,3.50,1.05,0,0,180.0*
21,1,3.15,1.40,0,0,180.0*
1,1,0.35,-1.57,0.53*
1,1,0.35,1.57,0.53*
1,1,0.35,1.57,-0.53*
1,1,0.35,-1.57,-0.53*
%
%ADD28ROUNDEDRECTD28*%
G04:AMPARAMS|DCode=29|XSize=1.4mm|YSize=1mm|CornerRadius=0.13mm|HoleSize=0mm|Usage=FLASHONLY|Rotation=0.000|XOffset=0mm|YOffset=0mm|HoleType=Round|Shape=RoundedRectangle|*
%AMROUNDEDRECTD29*
21,1,1.40,0.75,0,0,0.0*
21,1,1.15,1.00,0,0,0.0*
1,1,0.25,0.57,-0.38*
1,1,0.25,-0.57,-0.38*
1,1,0.25,-0.57,0.38*
1,1,0.25,0.57,0.38*
%
%ADD29ROUNDEDRECTD29*%
%ADD30C,0.30*%
%ADD31C,0.50*%
%ADD32C,0.70*%
%ADD33C,3.50*%
%ADD34C,0.70*%
%ADD35C,0.20*%
%ADD36C,0.38*%
%ADD37C,0.25*%
%ADD38C,0.13*%
%ADD39C,0.15*%
%ADD40R,5.20X2.40*%
%ADD41R,1.70X2.20*%
G04:AMPARAMS|DCode=42|XSize=1.2mm|YSize=1.1mm|CornerRadius=0.21mm|HoleSize=0mm|Usage=FLASHONLY|Rotation=0.000|XOffset=0mm|YOffset=0mm|HoleType=Round|Shape=RoundedRectangle|*
%AMROUNDEDRECTD42*
21,1,1.20,0.68,0,0,0.0*
21,1,0.78,1.10,0,0,0.0*
1,1,0.42,0.39,-0.34*
1,1,0.42,-0.39,-0.34*
1,1,0.42,-0.39,0.34*
1,1,0.42,0.39,0.34*
%
%ADD42ROUNDEDRECTD42*%
%ADD43R,1.50X2.60*%
%ADD44R,2.20X2.70*%
G04:AMPARAMS|DCode=45|XSize=1.2mm|YSize=1.1mm|CornerRadius=0.21mm|HoleSize=0mm|Usage=FLASHONLY|Rotation=90.000|XOffset=0mm|YOffset=0mm|HoleType=Round|Shape=RoundedRectangle|*
%AMROUNDEDRECTD45*
21,1,1.20,0.68,0,0,90.0*
21,1,0.78,1.10,0,0,90.0*
1,1,0.42,0.34,0.39*
1,1,0.42,0.34,-0.39*
1,1,0.42,-0.34,-0.39*
1,1,0.42,-0.34,0.39*
%
%ADD45ROUNDEDRECTD45*%
%ADD46O,0.83X2.23*%
%ADD47R,0.83X2.23*%
G04:AMPARAMS|DCode=48|XSize=0.8mm|YSize=1.2mm|CornerRadius=0.17mm|HoleSize=0mm|Usage=FLASHONLY|Rotation=180.000|XOffset=0mm|YOffset=0mm|HoleType=Round|Shape=RoundedRectangle|*
%AMROUNDEDRECTD48*
21,1,0.80,0.85,0,0,180.0*
21,1,0.45,1.20,0,0,180.0*
1,1,0.35,-0.23,0.42*
1,1,0.35,0.23,0.42*
1,1,0.35,0.23,-0.42*
1,1,0.35,-0.23,-0.42*
%
%ADD48ROUNDEDRECTD48*%
%ADD49R,2.20X1.70*%
G04:AMPARAMS|DCode=50|XSize=0.8mm|YSize=1.2mm|CornerRadius=0.17mm|HoleSize=0mm|Usage=FLASHONLY|Rotation=270.000|XOffset=0mm|YOffset=0mm|HoleType=Round|Shape=RoundedRectangle|*
%AMROUNDEDRECTD50*
21,1,0.80,0.85,0,0,270.0*
21,1,0.45,1.20,0,0,270.0*
1,1,0.35,-0.42,-0.23*
1,1,0.35,-0.42,0.23*
1,1,0.35,0.42,0.23*
1,1,0.35,0.42,-0.23*
%
%ADD50ROUNDEDRECTD50*%
%ADD51O,0.50X2.00*%
%ADD52O,2.00X0.50*%
G04:AMPARAMS|DCode=53|XSize=3.7mm|YSize=1.6mm|CornerRadius=0.28mm|HoleSize=0mm|Usage=FLASHONLY|Rotation=270.000|XOffset=0mm|YOffset=0mm|HoleType=Round|Shape=RoundedRectangle|*
%AMROUNDEDRECTD53*
21,1,3.70,1.05,0,0,270.0*
21,1,3.15,1.60,0,0,270.0*
1,1,0.55,-0.53,-1.57*
1,1,0.55,-0.53,1.57*
1,1,0.55,0.53,1.57*
1,1,0.55,0.53,-1.57*
%
%ADD53ROUNDEDRECTD53*%
G04:AMPARAMS|DCode=54|XSize=1mm|YSize=1mm|CornerRadius=0.2mm|HoleSize=0mm|Usage=FLASHONLY|Rotation=90.000|XOffset=0mm|YOffset=0mm|HoleType=Round|Shape=RoundedRectangle|*
%AMROUNDEDRECTD54*
21,1,1.00,0.60,0,0,90.0*
21,1,0.60,1.00,0,0,90.0*
1,1,0.40,0.30,0.30*
1,1,0.40,0.30,-0.30*
1,1,0.40,-0.30,-0.30*
1,1,0.40,-0.30,0.30*
%
%ADD54ROUNDEDRECTD54*%
G04:AMPARAMS|DCode=55|XSize=1.5mm|YSize=1mm|CornerRadius=0.2mm|HoleSize=0mm|Usage=FLASHONLY|Rotation=180.000|XOffset=0mm|YOffset=0mm|HoleType=Round|Shape=RoundedRectangle|*
%AMROUNDEDRECTD55*
21,1,1.50,0.60,0,0,180.0*
21,1,1.10,1.00,0,0,180.0*
1,1,0.40,-0.55,0.30*
1,1,0.40,0.55,0.30*
1,1,0.40,0.55,-0.30*
1,1,0.40,-0.55,-0.30*
%
%ADD55ROUNDEDRECTD55*%
G04:AMPARAMS|DCode=56|XSize=1.6mm|YSize=1.2mm|CornerRadius=0.23mm|HoleSize=0mm|Usage=FLASHONLY|Rotation=270.000|XOffset=0mm|YOffset=0mm|HoleType=Round|Shape=RoundedRectangle|*
%AMROUNDEDRECTD56*
21,1,1.60,0.75,0,0,270.0*
21,1,1.15,1.20,0,0,270.0*
1,1,0.45,-0.38,-0.57*
1,1,0.45,-0.38,0.57*
1,1,0.45,0.38,0.57*
1,1,0.45,0.38,-0.57*
%
%ADD56ROUNDEDRECTD56*%
%ADD57R,2.70X2.20*%
G04:AMPARAMS|DCode=58|XSize=3.7mm|YSize=1.6mm|CornerRadius=0.28mm|HoleSize=0mm|Usage=FLASHONLY|Rotation=180.000|XOffset=0mm|YOffset=0mm|HoleType=Round|Shape=RoundedRectangle|*
%AMROUNDEDRECTD58*
21,1,3.70,1.05,0,0,180.0*
21,1,3.15,1.60,0,0,180.0*
1,1,0.55,-1.57,0.53*
1,1,0.55,1.57,0.53*
1,1,0.55,1.57,-0.53*
1,1,0.55,-1.57,-0.53*
%
%ADD58ROUNDEDRECTD58*%
G04:AMPARAMS|DCode=59|XSize=1.6mm|YSize=1.2mm|CornerRadius=0.23mm|HoleSize=0mm|Usage=FLASHONLY|Rotation=0.000|XOffset=0mm|YOffset=0mm|HoleType=Round|Shape=RoundedRectangle|*
%AMROUNDEDRECTD59*
21,1,1.60,0.75,0,0,0.0*
21,1,1.15,1.20,0,0,0.0*
1,1,0.45,0.57,-0.38*
1,1,0.45,-0.57,-0.38*
1,1,0.45,-0.57,0.38*
1,1,0.45,0.57,0.38*
%
%ADD59ROUNDEDRECTD59*%
%ADD60C,3.70*%
%ADD61C,0.90*%
D37*
X6227Y4050D02*
X6252Y4075D01*
Y4126D01*
X6227Y4152D01*
X6125D01*
X6100Y4126D01*
Y4075D01*
X6125Y4050D01*
X6227D01*
X6252Y4202D02*
Y4304D01*
X6227D01*
X6125Y4202D01*
X6100D01*
Y4355D02*
X6125D01*
Y4380D01*
X6100D01*
Y4355D01*
Y4583D02*
Y4482D01*
X6202Y4583D01*
X6227D01*
X6252Y4558D01*
Y4507D01*
X6227Y4482D01*
Y4634D02*
X6252Y4659D01*
Y4710D01*
X6227Y4736D01*
X6125D01*
X6100Y4710D01*
Y4659D01*
X6125Y4634D01*
X6227D01*
X6100Y4786D02*
Y4837D01*
Y4812D01*
X6252D01*
X6227Y4786D01*
X6252Y5015D02*
X6227Y4964D01*
X6176Y4913D01*
X6125D01*
X6100Y4939D01*
Y4989D01*
X6125Y5015D01*
X6151D01*
X6176Y4989D01*
Y4913D01*
X6502Y3950D02*
X6350D01*
Y4052D01*
X6502Y4102D02*
Y4153D01*
Y4128D01*
X6350D01*
Y4102D01*
Y4153D01*
X6502Y4229D02*
X6350D01*
Y4305D01*
X6375Y4331D01*
X6477D01*
X6502Y4305D01*
Y4229D01*
X6350Y4382D02*
X6452D01*
X6502Y4432D01*
X6452Y4483D01*
X6350D01*
X6426D01*
Y4382D01*
X6350Y4534D02*
X6502D01*
Y4610D01*
X6477Y4636D01*
X6426D01*
X6401Y4610D01*
Y4534D01*
Y4585D02*
X6350Y4636D01*
X6477Y4839D02*
X6502Y4864D01*
Y4915D01*
X6477Y4940D01*
X6452D01*
X6426Y4915D01*
Y4889D01*
Y4915D01*
X6401Y4940D01*
X6375D01*
X6350Y4915D01*
Y4864D01*
X6375Y4839D01*
X6350Y4991D02*
X6375D01*
Y5016D01*
X6350D01*
Y4991D01*
Y5220D02*
Y5118D01*
X6452Y5220D01*
X6477D01*
X6502Y5194D01*
Y5143D01*
X6477Y5118D01*
M02*
