%FSLAX42Y42*%
%MOMM*%
G71*
G01*
G75*
G04 Layer_Color=8388736*
%ADD10R,5.00X2.20*%
%ADD11R,1.50X2.00*%
G04:AMPARAMS|DCode=12|XSize=1mm|YSize=0.9mm|CornerRadius=0.11mm|HoleSize=0mm|Usage=FLASHONLY|Rotation=0.000|XOffset=0mm|YOffset=0mm|HoleType=Round|Shape=RoundedRectangle|*
%AMROUNDEDRECTD12*
21,1,1.00,0.68,0,0,0.0*
21,1,0.78,0.90,0,0,0.0*
1,1,0.23,0.39,-0.34*
1,1,0.23,-0.39,-0.34*
1,1,0.23,-0.39,0.34*
1,1,0.23,0.39,0.34*
%
%ADD12ROUNDEDRECTD12*%
%ADD13R,1.30X2.40*%
%ADD14R,2.00X2.50*%
G04:AMPARAMS|DCode=15|XSize=1mm|YSize=0.9mm|CornerRadius=0.11mm|HoleSize=0mm|Usage=FLASHONLY|Rotation=90.000|XOffset=0mm|YOffset=0mm|HoleType=Round|Shape=RoundedRectangle|*
%AMROUNDEDRECTD15*
21,1,1.00,0.68,0,0,90.0*
21,1,0.78,0.90,0,0,90.0*
1,1,0.23,0.34,0.39*
1,1,0.23,0.34,-0.39*
1,1,0.23,-0.34,-0.39*
1,1,0.23,-0.34,0.39*
%
%ADD15ROUNDEDRECTD15*%
%ADD16O,0.64X2.03*%
%ADD17R,0.64X2.03*%
G04:AMPARAMS|DCode=18|XSize=0.6mm|YSize=1mm|CornerRadius=0.08mm|HoleSize=0mm|Usage=FLASHONLY|Rotation=180.000|XOffset=0mm|YOffset=0mm|HoleType=Round|Shape=RoundedRectangle|*
%AMROUNDEDRECTD18*
21,1,0.60,0.85,0,0,180.0*
21,1,0.45,1.00,0,0,180.0*
1,1,0.15,-0.23,0.42*
1,1,0.15,0.23,0.42*
1,1,0.15,0.23,-0.42*
1,1,0.15,-0.23,-0.42*
%
%ADD18ROUNDEDRECTD18*%
%ADD19R,2.00X1.50*%
G04:AMPARAMS|DCode=20|XSize=0.6mm|YSize=1mm|CornerRadius=0.08mm|HoleSize=0mm|Usage=FLASHONLY|Rotation=270.000|XOffset=0mm|YOffset=0mm|HoleType=Round|Shape=RoundedRectangle|*
%AMROUNDEDRECTD20*
21,1,0.60,0.85,0,0,270.0*
21,1,0.45,1.00,0,0,270.0*
1,1,0.15,-0.42,-0.23*
1,1,0.15,-0.42,0.23*
1,1,0.15,0.42,0.23*
1,1,0.15,0.42,-0.23*
%
%ADD20ROUNDEDRECTD20*%
%ADD21O,0.30X1.80*%
%ADD22O,1.80X0.30*%
G04:AMPARAMS|DCode=23|XSize=3.5mm|YSize=1.4mm|CornerRadius=0.17mm|HoleSize=0mm|Usage=FLASHONLY|Rotation=270.000|XOffset=0mm|YOffset=0mm|HoleType=Round|Shape=RoundedRectangle|*
%AMROUNDEDRECTD23*
21,1,3.50,1.05,0,0,270.0*
21,1,3.15,1.40,0,0,270.0*
1,1,0.35,-0.53,-1.57*
1,1,0.35,-0.53,1.57*
1,1,0.35,0.53,1.57*
1,1,0.35,0.53,-1.57*
%
%ADD23ROUNDEDRECTD23*%
G04:AMPARAMS|DCode=24|XSize=0.8mm|YSize=0.8mm|CornerRadius=0.1mm|HoleSize=0mm|Usage=FLASHONLY|Rotation=90.000|XOffset=0mm|YOffset=0mm|HoleType=Round|Shape=RoundedRectangle|*
%AMROUNDEDRECTD24*
21,1,0.80,0.60,0,0,90.0*
21,1,0.60,0.80,0,0,90.0*
1,1,0.20,0.30,0.30*
1,1,0.20,0.30,-0.30*
1,1,0.20,-0.30,-0.30*
1,1,0.20,-0.30,0.30*
%
%ADD24ROUNDEDRECTD24*%
G04:AMPARAMS|DCode=25|XSize=1.3mm|YSize=0.8mm|CornerRadius=0.1mm|HoleSize=0mm|Usage=FLASHONLY|Rotation=180.000|XOffset=0mm|YOffset=0mm|HoleType=Round|Shape=RoundedRectangle|*
%AMROUNDEDRECTD25*
21,1,1.30,0.60,0,0,180.0*
21,1,1.10,0.80,0,0,180.0*
1,1,0.20,-0.55,0.30*
1,1,0.20,0.55,0.30*
1,1,0.20,0.55,-0.30*
1,1,0.20,-0.55,-0.30*
%
%ADD25ROUNDEDRECTD25*%
G04:AMPARAMS|DCode=26|XSize=1.4mm|YSize=1mm|CornerRadius=0.13mm|HoleSize=0mm|Usage=FLASHONLY|Rotation=270.000|XOffset=0mm|YOffset=0mm|HoleType=Round|Shape=RoundedRectangle|*
%AMROUNDEDRECTD26*
21,1,1.40,0.75,0,0,270.0*
21,1,1.15,1.00,0,0,270.0*
1,1,0.25,-0.38,-0.57*
1,1,0.25,-0.38,0.57*
1,1,0.25,0.38,0.57*
1,1,0.25,0.38,-0.57*
%
%ADD26ROUNDEDRECTD26*%
%ADD27R,2.50X2.00*%
G04:AMPARAMS|DCode=28|XSize=3.5mm|YSize=1.4mm|CornerRadius=0.17mm|HoleSize=0mm|Usage=FLASHONLY|Rotation=180.000|XOffset=0mm|YOffset=0mm|HoleType=Round|Shape=RoundedRectangle|*
%AMROUNDEDRECTD28*
21,1,3.50,1.05,0,0,180.0*
21,1,3.15,1.40,0,0,180.0*
1,1,0.35,-1.57,0.53*
1,1,0.35,1.57,0.53*
1,1,0.35,1.57,-0.53*
1,1,0.35,-1.57,-0.53*
%
%ADD28ROUNDEDRECTD28*%
G04:AMPARAMS|DCode=29|XSize=1.4mm|YSize=1mm|CornerRadius=0.13mm|HoleSize=0mm|Usage=FLASHONLY|Rotation=0.000|XOffset=0mm|YOffset=0mm|HoleType=Round|Shape=RoundedRectangle|*
%AMROUNDEDRECTD29*
21,1,1.40,0.75,0,0,0.0*
21,1,1.15,1.00,0,0,0.0*
1,1,0.25,0.57,-0.38*
1,1,0.25,-0.57,-0.38*
1,1,0.25,-0.57,0.38*
1,1,0.25,0.57,0.38*
%
%ADD29ROUNDEDRECTD29*%
%ADD30C,0.30*%
%ADD31C,0.50*%
%ADD32C,0.70*%
%ADD33C,3.50*%
%ADD34C,0.70*%
%ADD35C,0.20*%
%ADD36C,0.38*%
%ADD37C,0.25*%
%ADD38C,0.13*%
%ADD39C,0.15*%
%ADD40R,5.20X2.40*%
%ADD41R,1.70X2.20*%
G04:AMPARAMS|DCode=42|XSize=1.2mm|YSize=1.1mm|CornerRadius=0.21mm|HoleSize=0mm|Usage=FLASHONLY|Rotation=0.000|XOffset=0mm|YOffset=0mm|HoleType=Round|Shape=RoundedRectangle|*
%AMROUNDEDRECTD42*
21,1,1.20,0.68,0,0,0.0*
21,1,0.78,1.10,0,0,0.0*
1,1,0.42,0.39,-0.34*
1,1,0.42,-0.39,-0.34*
1,1,0.42,-0.39,0.34*
1,1,0.42,0.39,0.34*
%
%ADD42ROUNDEDRECTD42*%
%ADD43R,1.50X2.60*%
%ADD44R,2.20X2.70*%
G04:AMPARAMS|DCode=45|XSize=1.2mm|YSize=1.1mm|CornerRadius=0.21mm|HoleSize=0mm|Usage=FLASHONLY|Rotation=90.000|XOffset=0mm|YOffset=0mm|HoleType=Round|Shape=RoundedRectangle|*
%AMROUNDEDRECTD45*
21,1,1.20,0.68,0,0,90.0*
21,1,0.78,1.10,0,0,90.0*
1,1,0.42,0.34,0.39*
1,1,0.42,0.34,-0.39*
1,1,0.42,-0.34,-0.39*
1,1,0.42,-0.34,0.39*
%
%ADD45ROUNDEDRECTD45*%
%ADD46O,0.83X2.23*%
%ADD47R,0.83X2.23*%
G04:AMPARAMS|DCode=48|XSize=0.8mm|YSize=1.2mm|CornerRadius=0.17mm|HoleSize=0mm|Usage=FLASHONLY|Rotation=180.000|XOffset=0mm|YOffset=0mm|HoleType=Round|Shape=RoundedRectangle|*
%AMROUNDEDRECTD48*
21,1,0.80,0.85,0,0,180.0*
21,1,0.45,1.20,0,0,180.0*
1,1,0.35,-0.23,0.42*
1,1,0.35,0.23,0.42*
1,1,0.35,0.23,-0.42*
1,1,0.35,-0.23,-0.42*
%
%ADD48ROUNDEDRECTD48*%
%ADD49R,2.20X1.70*%
G04:AMPARAMS|DCode=50|XSize=0.8mm|YSize=1.2mm|CornerRadius=0.17mm|HoleSize=0mm|Usage=FLASHONLY|Rotation=270.000|XOffset=0mm|YOffset=0mm|HoleType=Round|Shape=RoundedRectangle|*
%AMROUNDEDRECTD50*
21,1,0.80,0.85,0,0,270.0*
21,1,0.45,1.20,0,0,270.0*
1,1,0.35,-0.42,-0.23*
1,1,0.35,-0.42,0.23*
1,1,0.35,0.42,0.23*
1,1,0.35,0.42,-0.23*
%
%ADD50ROUNDEDRECTD50*%
%ADD51O,0.50X2.00*%
%ADD52O,2.00X0.50*%
G04:AMPARAMS|DCode=53|XSize=3.7mm|YSize=1.6mm|CornerRadius=0.28mm|HoleSize=0mm|Usage=FLASHONLY|Rotation=270.000|XOffset=0mm|YOffset=0mm|HoleType=Round|Shape=RoundedRectangle|*
%AMROUNDEDRECTD53*
21,1,3.70,1.05,0,0,270.0*
21,1,3.15,1.60,0,0,270.0*
1,1,0.55,-0.53,-1.57*
1,1,0.55,-0.53,1.57*
1,1,0.55,0.53,1.57*
1,1,0.55,0.53,-1.57*
%
%ADD53ROUNDEDRECTD53*%
G04:AMPARAMS|DCode=54|XSize=1mm|YSize=1mm|CornerRadius=0.2mm|HoleSize=0mm|Usage=FLASHONLY|Rotation=90.000|XOffset=0mm|YOffset=0mm|HoleType=Round|Shape=RoundedRectangle|*
%AMROUNDEDRECTD54*
21,1,1.00,0.60,0,0,90.0*
21,1,0.60,1.00,0,0,90.0*
1,1,0.40,0.30,0.30*
1,1,0.40,0.30,-0.30*
1,1,0.40,-0.30,-0.30*
1,1,0.40,-0.30,0.30*
%
%ADD54ROUNDEDRECTD54*%
G04:AMPARAMS|DCode=55|XSize=1.5mm|YSize=1mm|CornerRadius=0.2mm|HoleSize=0mm|Usage=FLASHONLY|Rotation=180.000|XOffset=0mm|YOffset=0mm|HoleType=Round|Shape=RoundedRectangle|*
%AMROUNDEDRECTD55*
21,1,1.50,0.60,0,0,180.0*
21,1,1.10,1.00,0,0,180.0*
1,1,0.40,-0.55,0.30*
1,1,0.40,0.55,0.30*
1,1,0.40,0.55,-0.30*
1,1,0.40,-0.55,-0.30*
%
%ADD55ROUNDEDRECTD55*%
G04:AMPARAMS|DCode=56|XSize=1.6mm|YSize=1.2mm|CornerRadius=0.23mm|HoleSize=0mm|Usage=FLASHONLY|Rotation=270.000|XOffset=0mm|YOffset=0mm|HoleType=Round|Shape=RoundedRectangle|*
%AMROUNDEDRECTD56*
21,1,1.60,0.75,0,0,270.0*
21,1,1.15,1.20,0,0,270.0*
1,1,0.45,-0.38,-0.57*
1,1,0.45,-0.38,0.57*
1,1,0.45,0.38,0.57*
1,1,0.45,0.38,-0.57*
%
%ADD56ROUNDEDRECTD56*%
%ADD57R,2.70X2.20*%
G04:AMPARAMS|DCode=58|XSize=3.7mm|YSize=1.6mm|CornerRadius=0.28mm|HoleSize=0mm|Usage=FLASHONLY|Rotation=180.000|XOffset=0mm|YOffset=0mm|HoleType=Round|Shape=RoundedRectangle|*
%AMROUNDEDRECTD58*
21,1,3.70,1.05,0,0,180.0*
21,1,3.15,1.60,0,0,180.0*
1,1,0.55,-1.57,0.53*
1,1,0.55,1.57,0.53*
1,1,0.55,1.57,-0.53*
1,1,0.55,-1.57,-0.53*
%
%ADD58ROUNDEDRECTD58*%
G04:AMPARAMS|DCode=59|XSize=1.6mm|YSize=1.2mm|CornerRadius=0.23mm|HoleSize=0mm|Usage=FLASHONLY|Rotation=0.000|XOffset=0mm|YOffset=0mm|HoleType=Round|Shape=RoundedRectangle|*
%AMROUNDEDRECTD59*
21,1,1.60,0.75,0,0,0.0*
21,1,1.15,1.20,0,0,0.0*
1,1,0.45,0.57,-0.38*
1,1,0.45,-0.57,-0.38*
1,1,0.45,-0.57,0.38*
1,1,0.45,0.57,0.38*
%
%ADD59ROUNDEDRECTD59*%
%ADD60C,3.70*%
%ADD61C,0.90*%
G36*
X3540Y3278D02*
Y3428D01*
X3690D01*
X3540Y3278D01*
D02*
G37*
G36*
X2308D02*
X2158Y3428D01*
X2308D01*
Y3278D01*
D02*
G37*
G36*
X3690Y3972D02*
X3540D01*
Y4122D01*
X3690Y3972D01*
D02*
G37*
G36*
X2310Y3970D02*
X2160D01*
X2310Y4120D01*
Y3970D01*
D02*
G37*
D40*
X2500Y5110D02*
D03*
Y4690D02*
D03*
D41*
X5525Y3100D02*
D03*
X3380Y4640D02*
D03*
X5400Y4500D02*
D03*
D42*
X4165Y4300D02*
D03*
Y4470D02*
D03*
X2000Y3105D02*
D03*
Y3275D02*
D03*
X3590Y4545D02*
D03*
Y4715D02*
D03*
X5625Y3535D02*
D03*
Y3365D02*
D03*
X4500Y3240D02*
D03*
Y3410D02*
D03*
X3190Y4785D02*
D03*
Y4615D02*
D03*
X5600Y4685D02*
D03*
Y4515D02*
D03*
X4225Y4640D02*
D03*
Y4810D02*
D03*
X6250Y3065D02*
D03*
Y3235D02*
D03*
X5600Y4335D02*
D03*
Y4165D02*
D03*
D43*
X6070Y4145D02*
D03*
Y3705D02*
D03*
X5830D02*
D03*
Y4145D02*
D03*
D44*
X3890Y3120D02*
D03*
X5975Y5150D02*
D03*
X5675Y5150D02*
D03*
X6475Y4700D02*
D03*
X6475Y4350D02*
D03*
X5850Y3125D02*
D03*
X5170Y5210D02*
D03*
D45*
X2545Y4250D02*
D03*
X2715D02*
D03*
X3035D02*
D03*
X2865D02*
D03*
X5075Y4980D02*
D03*
X5245D02*
D03*
X3755Y4720D02*
D03*
X3925D02*
D03*
X2440Y3175D02*
D03*
X2610D02*
D03*
X5840Y4425D02*
D03*
X6010D02*
D03*
X6010Y3425D02*
D03*
X5840D02*
D03*
X3385Y4250D02*
D03*
X3215D02*
D03*
X4410Y4975D02*
D03*
X4240D02*
D03*
X4615Y4650D02*
D03*
X4785D02*
D03*
X5385Y3400D02*
D03*
X5215D02*
D03*
X4360Y3675D02*
D03*
X4190D02*
D03*
D46*
X2481Y3410D02*
D03*
D47*
X2608D02*
D03*
X2734D02*
D03*
X2861D02*
D03*
X2989D02*
D03*
X3116D02*
D03*
X3242D02*
D03*
X3369D02*
D03*
Y3975D02*
D03*
X3242D02*
D03*
X3116D02*
D03*
X2989D02*
D03*
X2861D02*
D03*
X2734D02*
D03*
X2608D02*
D03*
X2481Y3979D02*
D03*
D48*
X3830Y4295D02*
D03*
X4020Y4555D02*
D03*
X3925D02*
D03*
X3830D02*
D03*
X4020Y4295D02*
D03*
D49*
X1950Y4250D02*
D03*
X5360Y4770D02*
D03*
D50*
X6260Y5195D02*
D03*
Y5005D02*
D03*
X6490Y5100D02*
D03*
D51*
X5225Y3620D02*
D03*
X5175D02*
D03*
X5125D02*
D03*
X5075D02*
D03*
X5025D02*
D03*
X4975D02*
D03*
X4925D02*
D03*
X4875D02*
D03*
X4825D02*
D03*
X4775D02*
D03*
X4725D02*
D03*
X4675D02*
D03*
Y4430D02*
D03*
X4725D02*
D03*
X4775D02*
D03*
X4825D02*
D03*
X4875D02*
D03*
X4925D02*
D03*
X4975D02*
D03*
X5025D02*
D03*
X5075D02*
D03*
X5125D02*
D03*
X5175D02*
D03*
X5225D02*
D03*
D52*
X4545Y3750D02*
D03*
Y3800D02*
D03*
Y3850D02*
D03*
Y3900D02*
D03*
Y3950D02*
D03*
Y4000D02*
D03*
Y4050D02*
D03*
Y4100D02*
D03*
Y4150D02*
D03*
Y4200D02*
D03*
Y4250D02*
D03*
Y4300D02*
D03*
X5355D02*
D03*
Y4250D02*
D03*
Y4200D02*
D03*
Y4150D02*
D03*
Y4100D02*
D03*
Y4050D02*
D03*
Y4000D02*
D03*
Y3950D02*
D03*
Y3900D02*
D03*
Y3850D02*
D03*
Y3800D02*
D03*
Y3750D02*
D03*
D53*
X3405Y5075D02*
D03*
X2995D02*
D03*
D54*
X6450Y3235D02*
D03*
Y3065D02*
D03*
D55*
X4600Y4825D02*
D03*
Y5025D02*
D03*
D56*
X4610Y5200D02*
D03*
X4790D02*
D03*
X6190Y4800D02*
D03*
X6010D02*
D03*
X2850Y4620D02*
D03*
X3030D02*
D03*
D57*
X5175Y3100D02*
D03*
X4250Y3950D02*
D03*
X4250Y3425D02*
D03*
X4250Y3125D02*
D03*
D58*
X6425Y3620D02*
D03*
Y4030D02*
D03*
D59*
X4400Y4635D02*
D03*
Y4815D02*
D03*
D60*
X3825Y3675D02*
D03*
X2025D02*
D03*
X4800Y3175D02*
D03*
X3800Y5100D02*
D03*
X1975Y5125D02*
D03*
D61*
X3060Y4810D02*
D03*
X3740Y4410D02*
D03*
X5175Y4650D02*
D03*
X4475Y5125D02*
D03*
X4925Y5075D02*
D03*
X5100Y4150D02*
D03*
X3175Y4425D02*
D03*
X4500Y3650D02*
D03*
X5375Y4925D02*
D03*
X2850Y3225D02*
D03*
X2725D02*
D03*
X3742Y3393D02*
D03*
X3875Y4075D02*
D03*
X3250Y3175D02*
D03*
X4450Y4450D02*
D03*
X4325Y4400D02*
D03*
Y4250D02*
D03*
X5215Y3281D02*
D03*
X5025Y3825D02*
D03*
X5475Y3275D02*
D03*
X3475Y4810D02*
D03*
X3525Y3050D02*
D03*
X3700D02*
D03*
X4615Y4381D02*
D03*
X5466Y3663D02*
D03*
X4100Y4675D02*
D03*
X2850Y4850D02*
D03*
X4000Y4175D02*
D03*
X3050Y3225D02*
D03*
X2400Y4300D02*
D03*
X6050Y3100D02*
D03*
X4900Y3825D02*
D03*
X5150D02*
D03*
X6100Y4550D02*
D03*
X6500Y3450D02*
D03*
X6350D02*
D03*
X4775Y4800D02*
D03*
X5775Y4925D02*
D03*
X5900D02*
D03*
X5600Y4800D02*
D03*
X5625Y4025D02*
D03*
X2850Y5075D02*
D03*
X6100Y3225D02*
D03*
X2425Y3775D02*
D03*
M02*
