%FSLAX42Y42*%
%MOMM*%
G71*
G01*
G75*
G04 Layer_Color=65535*
%ADD10R,5.00X2.20*%
%ADD11R,1.50X2.00*%
G04:AMPARAMS|DCode=12|XSize=1mm|YSize=0.9mm|CornerRadius=0.11mm|HoleSize=0mm|Usage=FLASHONLY|Rotation=0.000|XOffset=0mm|YOffset=0mm|HoleType=Round|Shape=RoundedRectangle|*
%AMROUNDEDRECTD12*
21,1,1.00,0.68,0,0,0.0*
21,1,0.78,0.90,0,0,0.0*
1,1,0.23,0.39,-0.34*
1,1,0.23,-0.39,-0.34*
1,1,0.23,-0.39,0.34*
1,1,0.23,0.39,0.34*
%
%ADD12ROUNDEDRECTD12*%
%ADD13R,1.30X2.40*%
%ADD14R,2.00X2.50*%
G04:AMPARAMS|DCode=15|XSize=1mm|YSize=0.9mm|CornerRadius=0.11mm|HoleSize=0mm|Usage=FLASHONLY|Rotation=90.000|XOffset=0mm|YOffset=0mm|HoleType=Round|Shape=RoundedRectangle|*
%AMROUNDEDRECTD15*
21,1,1.00,0.68,0,0,90.0*
21,1,0.78,0.90,0,0,90.0*
1,1,0.23,0.34,0.39*
1,1,0.23,0.34,-0.39*
1,1,0.23,-0.34,-0.39*
1,1,0.23,-0.34,0.39*
%
%ADD15ROUNDEDRECTD15*%
%ADD16O,0.64X2.03*%
%ADD17R,0.64X2.03*%
G04:AMPARAMS|DCode=18|XSize=0.6mm|YSize=1mm|CornerRadius=0.08mm|HoleSize=0mm|Usage=FLASHONLY|Rotation=180.000|XOffset=0mm|YOffset=0mm|HoleType=Round|Shape=RoundedRectangle|*
%AMROUNDEDRECTD18*
21,1,0.60,0.85,0,0,180.0*
21,1,0.45,1.00,0,0,180.0*
1,1,0.15,-0.23,0.42*
1,1,0.15,0.23,0.42*
1,1,0.15,0.23,-0.42*
1,1,0.15,-0.23,-0.42*
%
%ADD18ROUNDEDRECTD18*%
%ADD19R,2.00X1.50*%
G04:AMPARAMS|DCode=20|XSize=0.6mm|YSize=1mm|CornerRadius=0.08mm|HoleSize=0mm|Usage=FLASHONLY|Rotation=270.000|XOffset=0mm|YOffset=0mm|HoleType=Round|Shape=RoundedRectangle|*
%AMROUNDEDRECTD20*
21,1,0.60,0.85,0,0,270.0*
21,1,0.45,1.00,0,0,270.0*
1,1,0.15,-0.42,-0.23*
1,1,0.15,-0.42,0.23*
1,1,0.15,0.42,0.23*
1,1,0.15,0.42,-0.23*
%
%ADD20ROUNDEDRECTD20*%
%ADD21O,0.30X1.80*%
%ADD22O,1.80X0.30*%
G04:AMPARAMS|DCode=23|XSize=3.5mm|YSize=1.4mm|CornerRadius=0.17mm|HoleSize=0mm|Usage=FLASHONLY|Rotation=270.000|XOffset=0mm|YOffset=0mm|HoleType=Round|Shape=RoundedRectangle|*
%AMROUNDEDRECTD23*
21,1,3.50,1.05,0,0,270.0*
21,1,3.15,1.40,0,0,270.0*
1,1,0.35,-0.53,-1.57*
1,1,0.35,-0.53,1.57*
1,1,0.35,0.53,1.57*
1,1,0.35,0.53,-1.57*
%
%ADD23ROUNDEDRECTD23*%
G04:AMPARAMS|DCode=24|XSize=0.8mm|YSize=0.8mm|CornerRadius=0.1mm|HoleSize=0mm|Usage=FLASHONLY|Rotation=90.000|XOffset=0mm|YOffset=0mm|HoleType=Round|Shape=RoundedRectangle|*
%AMROUNDEDRECTD24*
21,1,0.80,0.60,0,0,90.0*
21,1,0.60,0.80,0,0,90.0*
1,1,0.20,0.30,0.30*
1,1,0.20,0.30,-0.30*
1,1,0.20,-0.30,-0.30*
1,1,0.20,-0.30,0.30*
%
%ADD24ROUNDEDRECTD24*%
G04:AMPARAMS|DCode=25|XSize=1.3mm|YSize=0.8mm|CornerRadius=0.1mm|HoleSize=0mm|Usage=FLASHONLY|Rotation=180.000|XOffset=0mm|YOffset=0mm|HoleType=Round|Shape=RoundedRectangle|*
%AMROUNDEDRECTD25*
21,1,1.30,0.60,0,0,180.0*
21,1,1.10,0.80,0,0,180.0*
1,1,0.20,-0.55,0.30*
1,1,0.20,0.55,0.30*
1,1,0.20,0.55,-0.30*
1,1,0.20,-0.55,-0.30*
%
%ADD25ROUNDEDRECTD25*%
G04:AMPARAMS|DCode=26|XSize=1.4mm|YSize=1mm|CornerRadius=0.13mm|HoleSize=0mm|Usage=FLASHONLY|Rotation=270.000|XOffset=0mm|YOffset=0mm|HoleType=Round|Shape=RoundedRectangle|*
%AMROUNDEDRECTD26*
21,1,1.40,0.75,0,0,270.0*
21,1,1.15,1.00,0,0,270.0*
1,1,0.25,-0.38,-0.57*
1,1,0.25,-0.38,0.57*
1,1,0.25,0.38,0.57*
1,1,0.25,0.38,-0.57*
%
%ADD26ROUNDEDRECTD26*%
%ADD27R,2.50X2.00*%
G04:AMPARAMS|DCode=28|XSize=3.5mm|YSize=1.4mm|CornerRadius=0.17mm|HoleSize=0mm|Usage=FLASHONLY|Rotation=180.000|XOffset=0mm|YOffset=0mm|HoleType=Round|Shape=RoundedRectangle|*
%AMROUNDEDRECTD28*
21,1,3.50,1.05,0,0,180.0*
21,1,3.15,1.40,0,0,180.0*
1,1,0.35,-1.57,0.53*
1,1,0.35,1.57,0.53*
1,1,0.35,1.57,-0.53*
1,1,0.35,-1.57,-0.53*
%
%ADD28ROUNDEDRECTD28*%
G04:AMPARAMS|DCode=29|XSize=1.4mm|YSize=1mm|CornerRadius=0.13mm|HoleSize=0mm|Usage=FLASHONLY|Rotation=0.000|XOffset=0mm|YOffset=0mm|HoleType=Round|Shape=RoundedRectangle|*
%AMROUNDEDRECTD29*
21,1,1.40,0.75,0,0,0.0*
21,1,1.15,1.00,0,0,0.0*
1,1,0.25,0.57,-0.38*
1,1,0.25,-0.57,-0.38*
1,1,0.25,-0.57,0.38*
1,1,0.25,0.57,0.38*
%
%ADD29ROUNDEDRECTD29*%
%ADD30C,0.30*%
%ADD31C,0.50*%
%ADD32C,0.70*%
%ADD33C,3.50*%
%ADD34C,0.70*%
%ADD35C,0.20*%
%ADD36C,0.38*%
%ADD37C,0.25*%
%ADD38C,0.13*%
%ADD39C,0.15*%
G36*
X5229Y3746D02*
X5129D01*
X5229Y3846D01*
Y3746D01*
D02*
G37*
G36*
X4060Y4420D02*
X4004Y4476D01*
X4060D01*
Y4420D01*
D02*
G37*
D31*
X4021Y4652D02*
X4020Y4653D01*
X4020Y4652D01*
X4020Y4652D01*
X4021Y4652D01*
X6163Y5196D02*
X6162Y5195D01*
X6163Y5195D01*
X6163Y5195D01*
X6163Y5196D01*
D35*
X2025Y3925D02*
G03*
X2025Y3425I0J-250D01*
G01*
X3825D02*
G03*
X3825Y3925I0J250D01*
G01*
X2250Y3075D02*
Y4350D01*
X3700Y3075D02*
Y3425D01*
Y3925D02*
Y4450D01*
X2150Y3925D02*
Y4450D01*
Y3075D02*
Y3425D01*
Y4450D02*
X3700D01*
X2250Y4350D02*
X3600D01*
Y3075D02*
Y4350D01*
X2025Y3925D02*
X2150D01*
X2025Y3425D02*
X2150D01*
X3700D02*
X3825D01*
X3700Y3925D02*
X3825D01*
X5417Y5062D02*
X5395Y5040D01*
Y4997D01*
X5417Y4975D01*
X5503D01*
X5525Y4997D01*
Y5040D01*
X5503Y5062D01*
X5460D01*
Y5018D01*
X5525Y5105D02*
X5395D01*
X5525Y5192D01*
X5395D01*
Y5235D02*
X5525D01*
Y5300D01*
X5503Y5322D01*
X5417D01*
X5395Y5300D01*
Y5235D01*
X6260Y4275D02*
Y4362D01*
X6217Y4318D02*
X6303D01*
X6195Y4492D02*
Y4405D01*
X6260D01*
X6238Y4448D01*
Y4470D01*
X6260Y4492D01*
X6303D01*
X6325Y4470D01*
Y4427D01*
X6303Y4405D01*
X6195Y4535D02*
X6282D01*
X6325Y4578D01*
X6282Y4622D01*
X6195D01*
D36*
X5375Y3669D02*
G03*
X5375Y3669I-19J0D01*
G01*
D37*
X2750Y4840D02*
Y4960D01*
X2250Y4840D02*
Y4960D01*
X6100Y3875D02*
Y3975D01*
X5775Y3875D02*
Y3975D01*
X3560Y3675D02*
X3625Y3675D01*
X2225Y3675D02*
X2290Y3675D01*
X3547Y3700D02*
Y3916D01*
Y3484D02*
Y3700D01*
X2303Y3484D02*
Y3700D01*
Y3916D01*
X2925Y3700D02*
X3547D01*
X2303D02*
X2925D01*
X6417Y3308D02*
X6480D01*
X1887Y4473D02*
X1870Y4490D01*
X1837D01*
X1820Y4473D01*
Y4407D01*
X1837Y4390D01*
X1870D01*
X1887Y4407D01*
X1920Y4490D02*
Y4390D01*
X1987D01*
X2020Y4490D02*
Y4390D01*
Y4423D01*
X2087Y4490D01*
X2037Y4440D01*
X2087Y4390D01*
X2010Y4870D02*
Y4770D01*
X2077D01*
X2110D02*
X2143D01*
X2127D01*
Y4870D01*
X2110Y4853D01*
D38*
X4117Y4403D02*
X4213D01*
X4117Y4367D02*
X4213D01*
X2648Y4202D02*
Y4298D01*
X2612Y4202D02*
Y4298D01*
X1952Y3208D02*
X2048D01*
X1952Y3172D02*
X2048D01*
X2932Y4202D02*
Y4298D01*
X2968Y4202D02*
Y4298D01*
X5145Y5021D02*
X5175D01*
X5145Y4939D02*
X5175D01*
X3542Y4648D02*
X3638D01*
X3542Y4612D02*
X3638D01*
X3825Y4761D02*
X3855D01*
X3825Y4679D02*
X3855D01*
X3790Y4476D02*
X4060D01*
X3790Y4374D02*
Y4476D01*
Y4374D02*
X4060D01*
Y4476D01*
X6337Y4955D02*
Y5245D01*
Y4955D02*
X6413D01*
Y5245D01*
X6337D02*
X6413D01*
X3160Y4915D02*
Y5235D01*
X3240Y4915D02*
Y5235D01*
X4537Y4887D02*
Y4963D01*
X4664Y4887D02*
Y4963D01*
X4685Y5135D02*
Y5265D01*
X4715Y5135D02*
Y5265D01*
X5666Y3435D02*
Y3465D01*
X5584Y3435D02*
Y3465D01*
X4452Y3343D02*
X4548D01*
X4452Y3307D02*
X4548D01*
X3142Y4682D02*
X3238D01*
X3142Y4718D02*
X3238D01*
X6265Y3865D02*
X6585D01*
X6265Y3785D02*
X6585D01*
X4335Y4710D02*
X4465D01*
X4335Y4740D02*
X4465D01*
X6115Y4735D02*
Y4865D01*
X6085Y4735D02*
Y4865D01*
X5641Y4585D02*
Y4615D01*
X5559Y4585D02*
Y4615D01*
X2543Y3127D02*
Y3223D01*
X2507Y3127D02*
Y3223D01*
X2925Y4555D02*
Y4685D01*
X2955Y4555D02*
Y4685D01*
X5943Y4377D02*
Y4473D01*
X5907Y4377D02*
Y4473D01*
Y3377D02*
Y3473D01*
X5943Y3377D02*
Y3473D01*
X4184Y4710D02*
Y4740D01*
X4266Y4710D02*
Y4740D01*
X3285Y4209D02*
X3315D01*
X3285Y4291D02*
X3315D01*
X4310Y4934D02*
X4340D01*
X4310Y5016D02*
X4340D01*
X6209Y3135D02*
Y3165D01*
X6291Y3135D02*
Y3165D01*
X5552Y4232D02*
X5648D01*
X5552Y4268D02*
X5648D01*
X4718Y4602D02*
Y4698D01*
X4682Y4602D02*
Y4698D01*
X5282Y3352D02*
Y3448D01*
X5318Y3352D02*
Y3448D01*
X4257Y3627D02*
Y3723D01*
X4293Y3627D02*
Y3723D01*
D39*
X4671Y4304D02*
X5229D01*
X4671Y3746D02*
X5229D01*
X4671D02*
Y4304D01*
X5229Y3746D02*
Y4304D01*
M02*
