M48
;Layer_Color=9474304
;FILE_FORMAT=4:2
METRIC,LZ
;TYPE=PLATED
T1F00S00C0.35
T2F00S00C2.20
T3F00S00C2.60
%
T01
X002725Y003225
X00285
X00305Y003225
X00325Y003175
X003525Y00305
X0037
X003742Y003393
X002425Y003775
X0045Y00365
X0049Y003825
X005025
X00515
X005466Y003663
X005475Y003275
X005215Y003281
X0061Y003225
X00605Y0031
X00635Y00345
X0065
X005625Y004025
X0051Y00415
X005175Y00465
X005375Y004925
X0056Y0048
X005775Y004925
X0059
X0061Y00455
X004775Y0048
X004925Y005075
X004475Y005125
X00445Y00445
X004325Y0044
Y00425
X004Y004175
X0041Y004675
X004615Y004381
X00374Y00441
X003875Y004075
X003175Y004425
X00306Y00481
X00285Y00485
Y005075
X003475Y00481
X0024Y0043
T02
X002025Y003675
X003825
T03
X0048Y003175
X0038Y0051
X001975Y005125
M30
